<?xml version="1.0" encoding="UTF-8"?>
<svg width="512" height="512" viewBox="0 0 512 512" xmlns="http://www.w3.org/2000/svg">
  <defs>
    <linearGradient id="bg" x1="24" y1="24" x2="488" y2="488" gradientUnits="userSpaceOnUse">
      <stop offset="0" stop-color="#1e3a6e"/>
      <stop offset="0.4" stop-color="#152952"/>
      <stop offset="1" stop-color="#0d1b38"/>
    </linearGradient>
    <radialGradient id="shine" cx="200.32" cy="153.92" r="232" gradientUnits="userSpaceOnUse">
      <stop offset="0" stop-color="#ffffff" stop-opacity="0.16"/>
      <stop offset="1" stop-color="#ffffff" stop-opacity="0"/>
    </radialGradient>
    <linearGradient id="mark" x1="0" y1="0" x2="0" y2="1">
      <stop offset="0" stop-color="#e0edff"/>
      <stop offset="1" stop-color="#93b4e4"/>
    </linearGradient>
    <linearGradient id="badge" x1="0" y1="0" x2="0" y2="1">
      <stop offset="0" stop-color="#4aa4ff"/>
      <stop offset="1" stop-color="#2272d8"/>
    </linearGradient>
  </defs>

  <rect x="24" y="24" width="464" height="464" rx="140" fill="url(#bg)"/>
  <rect x="24" y="24" width="464" height="464" rx="140" fill="url(#shine)"/>

  <!-- Existing BSP-style glyph -->
  <rect x="238" y="149" width="32" height="141" rx="8" fill="url(#mark)"/>
  <rect x="194" y="187" width="120" height="33" rx="8" fill="url(#mark)"/>
  <path d="M183.5 301.3c0 0 32.6-16.3 70.7-16.3 38 0 70.6 16.3 70.6 16.3v16.3s-32.6-10.9-70.6-10.9c-38.1 0-70.7 10.9-70.7 10.9z" fill="url(#mark)" opacity="0.7"/>

  <!-- AI differentiator badge -->
  <g>
    <rect x="168" y="54" width="176" height="62" rx="22" fill="url(#badge)"/>
    <rect x="168" y="54" width="176" height="62" rx="22" fill="none" stroke="rgba(255,255,255,0.35)"/>
    <text x="256" y="96" text-anchor="middle" font-family="Helvetica, Arial, sans-serif" font-size="34" font-weight="800" fill="#ffffff" letter-spacing="4">AI</text>
  </g>
</svg>
